<?xml version="1.0" encoding="utf-8"?>
<!-- Generator: Adobe Illustrator 15.0.2, SVG Export Plug-In  -->
<!DOCTYPE svg PUBLIC "-//W3C//DTD SVG 1.1//EN" "http://www.w3.org/Graphics/SVG/1.1/DTD/svg11.dtd" [
	<!ENTITY ns_flows "http://ns.adobe.com/Flows/1.0/">
]>
<svg version="1.1"
	 xmlns="http://www.w3.org/2000/svg" xmlns:xlink="http://www.w3.org/1999/xlink" xmlns:a="http://ns.adobe.com/AdobeSVGViewerExtensions/3.0/"
	 x="0px" y="0px" width="45px" height="43px" viewBox="4.155 0 45 43" enable-background="new 4.155 0 45 43" xml:space="preserve">
<defs>
</defs>
<path fill="#b70302" d="M49.154,0.002H28.786v10.149c0,0,4.496,0,5.109,0c0,0.777,0,8.74,0,10.341
	C32.57,18.83,17.558,0.002,17.558,0.002H4.155v10.149c0,0,4.496,0,5.11,0c0,0.84,0,21.945,0,22.785c-0.614,0-5.11,0-5.11,0v10.15
	h20.368v-10.15c0,0-4.495,0-5.109,0c0-0.777,0-8.75,0-10.351C20.74,24.246,35.76,43.086,35.76,43.086h13.395v-10.15
	c0,0-4.502,0-5.109,0c0-0.822,0-21.944,0-22.785c0.615,0,5.109,0,5.109,0V0.002L49.154,0.002z"/>
<path fill="#FFFFFF" d="M41.118,6.311c0.577-0.508,1.373-0.664,2.237-0.664c0.416-0.005,0.785-0.005,1.051-0.003
	c0.264,0.001,0.425,0.003,0.425,0.003V4.511H33.108v1.135h1.619c0.608,0,1.376,0.093,1.989,0.561
	c0.615,0.468,1.076,1.312,1.076,2.818v22.242L16.482,4.511H8.477v1.107c0.596,0,1.76,0.355,2.775,0.937
	c1.015,0.582,1.881,1.391,1.881,2.3v25.151c0,1.404-0.362,2.264-0.94,2.77c-0.579,0.508-1.374,0.664-2.239,0.664
	c-0.415,0.006-0.784,0.006-1.049,0.006c-0.266-0.002-0.427-0.006-0.427-0.006v1.135h11.724v-1.135h-1.618
	c-0.61,0-1.376-0.092-1.99-0.561c-0.614-0.467-1.075-1.312-1.075-2.816V11.767l21.35,26.807h7.964v-1.105
	c-0.595,0-1.759-0.355-2.774-0.938c-1.013-0.58-1.88-1.391-1.88-2.299V9.082C40.177,7.676,40.538,6.818,41.118,6.311z"/>
<rect fill="none" width="53.33" height="43.085"/>
</svg>
